#!OML:ASF H:\Terrain\Walking\May29\JustinRory\Justin.ASF
:FULLY-SPECIFIED
:DEGREES
16
root 13.4448 16.5878 17.0911 36.9657 -51.4785 -21.9617
lowerback 14.8828 -4.59777 10.793
upperback 2.37761 -4.19471 4.65961
thorax -6.19623 -2.29177 -0.209635
lowerneck 3.22968 -17.1011 -12.7669
upperneck 15.8404 -29.3646 26.597
head 10.7833 -13.8643 7.7019
rclavicle 5.1684e-015 1.59028e-015
rhumerus -16.8953 -7.73387 -96.8772
rradius 24.9621
rwrist -23.8586
rhand -38.272 21.4391
rfingers 7.12502
rthumb -11.3016 -8.23646
lclavicle 5.1684e-015 1.59028e-015
lhumerus 60.952 -67.1617 45.7091
lradius 65.4681
lwrist -35.5356
lhand -6.8451 36.4832
lfingers 7.12502
lthumb 19.0198 65.5733
rfemur -1.87163 -15.8427 40.6196
rtibia 27.7294
rfoot -23.827 -9.23881
rtoes -22.7617
lfemur -58.2002 5.52824 -14.5283
ltibia 73.4589
lfoot -15.1303 -16.6706
ltoes 5.68675
17
root 13.4293 16.627 17.0049 37.8908 -53.0549 -23.1038
lowerback 15.104 -4.08045 9.75647
upperback 2.37152 -3.65275 4.64789
thorax -6.21636 -2.00974 0.237078
lowerneck 3.46361 -16.6999 -13.0256
upperneck 16.4988 -28.8904 26.2103
head 10.829 -13.6605 7.75532
rclavicle -9.54166e-015 -7.95139e-015
rhumerus -18.1531 -3.55222 -97.7045
rradius 26.4262
rwrist -24.9014
rhand -37.0449 20.749
rfingers 7.12502
rthumb -10.118 -8.98774
lclavicle -9.54166e-015 -7.95139e-015
lhumerus 62.9 -67.6018 44.5856
lradius 63.8906
lwrist -35.7927
lhand -5.47767 33.0845
lfingers 7.12502
lthumb 20.3344 62.04
rfemur -1.71808 -15.2213 40.4513
rtibia 27.8254
rfoot -23.3594 -9.19855
rtoes -24.0747
lfemur -58.0777 6.70575 -13.9607
ltibia 73.6526
lfoot -16.7009 -15.2218
ltoes -9.80149
18
root 13.4073 16.6652 16.9277 39.1448 -54.6927 -24.3411
lowerback 14.945 -3.55109 8.73443
upperback 2.32517 -3.14056 4.62147
thorax -6.09193 -1.73841 0.648606
lowerneck 3.56714 -16.3773 -12.9428
upperneck 17.2227 -28.4193 25.4415
head 10.7909 -13.4373 7.60723
rclavicle -2.18663e-014 -3.97569e-014
rhumerus -18.7542 -2.34962 -98.4461
rradius 26.7254
rwrist -23.499
rhand -35.4692 20.978
rfingers 7.12502
rthumb -8.59761 -8.82694
lclavicle -2.18663e-014 -3.97569e-014
lhumerus 65.3382 -68.0567 42.6869
lradius 62.5494
lwrist -36.1224
lhand -3.67628 30.6653
lfingers 7.12502
lthumb 22.0648 59.4264
rfemur -1.75032 -14.7317 40.2499
rtibia 27.9922
rfoot -22.8722 -9.0767
rtoes -24.58
lfemur -58.151 7.90109 -13.377
ltibia 74.0271
lfoot -17.9836 -13.0027
ltoes -21.1862
19
root 13.3815 16.7081 16.8608 40.1128 -56.4192 -25.0457
lowerback 14.5244 -3.12641 7.41221
upperback 2.21797 -2.82956 4.56933
thorax -5.90069 -1.55633 1.23559
lowerneck 3.20737 -16.0776 -12.7215
upperneck 18.4831 -27.9981 24.234
head 10.9532 -13.1795 7.23192
rclavicle 4.49253e-014 -5.56597e-014
rhumerus -19.3771 -0.837034 -99.1712
rradius 27.0697
rwrist -22.0511
rhand -34.0479 21.4507
rfingers 7.12502
rthumb -7.22579 -8.4059
lclavicle 4.49253e-014 -5.56597e-014
lhumerus 67.8676 -68.3854 40.3114
lradius 61.7433
lwrist -35.8397
lhand -2.23544 29.6603
lfingers 7.12502
lthumb 23.4476 58.2516
rfemur -1.84857 -14.3133 39.6351
rtibia 28.1048
rfoot -22.6587 -8.59875
rtoes -22.6813
lfemur -58.2644 8.82055 -13.1001
ltibia 74.573
lfoot -18.2177 -10.7602
ltoes -25.4017
20
root 13.3603 16.7419 16.7973 41.186 -57.9259 -25.9841
lowerback 14.2322 -2.70836 6.23282
upperback 2.24167 -2.49004 4.62361
thorax -5.65184 -1.36358 1.86161
lowerneck 3.17274 -15.5194 -13.8848
upperneck 19.3736 -27.4062 24.1153
head 11.3192 -12.9425 7.50288
rclavicle 9.54166e-015 -1.11319e-014
rhumerus -20.1865 3.45042 -99.9517
rradius 28.2911
rwrist -22.7678
rhand -32.9973 21.7346
rfingers 7.12502
rthumb -6.21161 -8.15438
lclavicle 9.54166e-015 -1.11319e-014
lhumerus 71.208 -68.4997 37.3339
lradius 61.0583
lwrist -35.0698
lhand -1.10431 28.9043
lfingers 7.12502
lthumb 24.5322 57.3528
rfemur -1.85374 -13.0953 39.3847
rtibia 28.1576
rfoot -22.8408 -8.82168
rtoes -20.8696
lfemur -58.2901 9.61782 -12.5815
ltibia 75.2793
lfoot -18.2944 -8.5874
ltoes -25.765
21
root 13.3449 16.7498 16.7357 42.9516 -59.1634 -27.8019
lowerback 14.062 -2.16286 5.52183
upperback 2.31319 -1.89767 4.76518
thorax -5.44516 -1.05991 2.28338
lowerneck 2.91803 -15.2993 -13.8163
upperneck 19.7416 -27.0033 23.6156
head 11.3011 -12.733 7.38204
rclavicle 1.94809e-014 2.62396e-014
rhumerus -20.7088 6.03225 -100.51
rradius 29.2608
rwrist -22.1844
rhand -31.81 22.5421
rfingers 7.12502
rthumb -5.06525 -7.37739
lclavicle 1.94809e-014 2.62396e-014
lhumerus 76.0335 -68.5974 33.114
lradius 60.3916
lwrist -33.9437
lhand -0.310193 28.274
lfingers 7.12502
lthumb 25.2932 56.6172
rfemur -1.77183 -11.1329 39.8165
rtibia 28.206
rfoot -23.035 -9.90513
rtoes -20.5785
lfemur -58.3275 10.5683 -11.5409
ltibia 76.1934
lfoot -18.8201 -6.24522
ltoes -24.469
22
root 13.3342 16.7454 16.6895 44.0662 -60.1797 -28.7895
lowerback 13.7716 -1.83964 4.87225
upperback 2.31741 -1.58959 4.83849
thorax -5.2613 -0.895947 2.65447
lowerneck 2.62033 -15.1076 -13.7928
upperneck 20.2699 -26.6318 22.9368
head 11.3373 -12.5392 7.19278
rclavicle 2.3059e-014 -9.06458e-014
rhumerus -21.373 8.47113 -101.216
rradius 30.6541
rwrist -21.4449
rhand -31.2054 23.2581
rfingers 7.12502
rthumb -4.48146 -6.67445
lclavicle 2.3059e-014 -9.06458e-014
lhumerus 80.2443 -68.4748 29.4247
lradius 59.8289
lwrist -32.8697
lhand 0.288751 27.7125
lfingers 7.12502
lthumb 25.8669 55.9733
rfemur -1.80064 -10.613 39.7974
rtibia 28.1989
rfoot -22.9008 -10.3891
rtoes -21.8678
lfemur -58.4533 10.8705 -10.7728
ltibia 77.154
lfoot -19.7225 -3.89455
ltoes -24.6977
23
root 13.3143 16.7534 16.6452 44.7594 -61.5066 -29.3683
lowerback 13.4365 -1.79847 3.60254
upperback 2.41742 -1.7427 5.04297
thorax -4.92716 -0.949524 3.5955
lowerneck 1.99486 -14.5996 -14.8198
upperneck 21.3611 -25.8979 22.241
head 11.7329 -12.2128 7.21047
rclavicle -1.11319e-014 -2.78299e-014
rhumerus -22.7116 14.6946 -102.151
rradius 33.2151
rwrist -22.6164
rhand -30.6862 22.8149
rfingers 7.12502
rthumb -3.98007 -7.12767
lclavicle -1.11319e-014 -2.78299e-014
lhumerus 81.0623 -67.7921 29.0061
lradius 59.0171
lwrist -32.4555
lhand 0.951604 27.0596
lfingers 7.12502
lthumb 26.5015 55.2262
rfemur -1.73465 -10.7401 39.1773
rtibia 28.2019
rfoot -22.7621 -10.3053
rtoes -23.773
lfemur -58.2749 11.1593 -10.3768
ltibia 77.983
lfoot -20.827 -2.47083
ltoes -26.2592
24
root 13.2859 16.7708 16.5982 45.9131 -62.9258 -30.5673
lowerback 13.1597 -1.78587 2.31283
upperback 2.5092 -1.9226 5.28648
thorax -4.62212 -1.02245 4.59982
lowerneck 1.44694 -14.0155 -15.457
upperneck 22.395 -24.9457 21.2935
head 11.9387 -11.8001 7.13077
rclavicle -4.37326e-015 1.82882e-014
rhumerus -23.5004 17.7506 -102.535
rradius 34.568
rwrist -20.2695
rhand -28.4741 23.3286
rfingers 7.12502
rthumb -1.84377 -6.64322
lclavicle -4.37326e-015 1.82882e-014
lhumerus 81.6695 -67.0425 28.5576
lradius 58.0866
lwrist -32.2845
lhand 1.90471 26.4902
lfingers 7.12502
lthumb 27.4135 54.5158
rfemur -1.63463 -10.191 38.733
rtibia 28.4451
rfoot -22.8585 -10.4633
rtoes -24.7033
lfemur -57.8316 11.8518 -9.86788
ltibia 78.6792
lfoot -21.6358 -2.18101
ltoes -25.7536
